<?xml version="1.0" encoding="utf-8"?>
<!-- Generator: Adobe Illustrator 27.4.1, SVG Export Plug-In . SVG Version: 6.00 Build 0)  -->
<svg version="1.1" id="Layer_1" xmlns="http://www.w3.org/2000/svg" xmlns:xlink="http://www.w3.org/1999/xlink" x="0px" y="0px"
	 viewBox="0 0 250 100" style="enable-background:new 0 0 250 100;" xml:space="preserve">
<style type="text/css">
	.st0{opacity:0.9;}
	.st1{fill:#EA5B0C;}
	.st2{fill:#352E87;}
</style>
<g>
	<g id="Capa_1">
		<g class="st0">
			<polygon class="st1" points="55.7,49.5 56.7,14.1 19.8,14.1 			"/>
			<polygon class="st1" points="37.7,85.4 73.6,13.9 109.9,13.6 73.8,85.4 			"/>
			<polygon class="st1" points="109.9,13.6 110.4,84.9 144.8,84.9 112.5,52.2 180,84.9 180,13.6 145.6,13.6 177.1,49 			"/>
			<polygon class="st1" points="180,50.5 212.7,14.6 246.3,14.6 211.9,50.5 248.8,86.4 213.2,86.4 			"/>
		</g>
		<g>
			<polygon class="st2" points="38.1,53.1 38.1,14.1 1.2,14.1 			"/>
			<polygon class="st2" points="19.6,85.4 55.6,14.1 91.8,13.6 55.7,85.4 			"/>
			<polygon class="st2" points="91.8,13.6 91.8,84.9 125.7,84.9 93.9,52.7 161.4,85.4 161.4,13.6 126.6,13.6 158.5,49.5 			"/>
			<polygon class="st2" points="161.4,50.5 194.6,14.6 228.1,14.6 193.7,50.5 230.7,86.4 195,86.4 			"/>
		</g>
	</g>
</g>
</svg>
